<svg width="163" height="29" viewBox="0 0 163 29" fill="none" xmlns="http://www.w3.org/2000/svg">
<path d="M8.36 19.24C7.28 19.24 6.27333 19.0667 5.34 18.72C4.42 18.36 3.62 17.8533 2.94 17.2C2.26 16.5467 1.72667 15.78 1.34 14.9C0.966667 14.02 0.78 13.0533 0.78 12C0.78 10.9467 0.966667 9.98 1.34 9.1C1.72667 8.22 2.26 7.45333 2.94 6.8C3.63333 6.14667 4.44 5.64667 5.36 5.3C6.28 4.94 7.28667 4.76 8.38 4.76C9.59333 4.76 10.6867 4.97333 11.66 5.4C12.6467 5.81333 13.4733 6.42667 14.14 7.24L12.06 9.16C11.58 8.61333 11.0467 8.20667 10.46 7.94C9.87333 7.66 9.23333 7.52 8.54 7.52C7.88667 7.52 7.28667 7.62667 6.74 7.84C6.19333 8.05333 5.72 8.36 5.32 8.76C4.92 9.16 4.60667 9.63333 4.38 10.18C4.16667 10.7267 4.06 11.3333 4.06 12C4.06 12.6667 4.16667 13.2733 4.38 13.82C4.60667 14.3667 4.92 14.84 5.32 15.24C5.72 15.64 6.19333 15.9467 6.74 16.16C7.28667 16.3733 7.88667 16.48 8.54 16.48C9.23333 16.48 9.87333 16.3467 10.46 16.08C11.0467 15.8 11.58 15.38 12.06 14.82L14.14 16.74C13.4733 17.5533 12.6467 18.1733 11.66 18.6C10.6867 19.0267 9.58667 19.24 8.36 19.24Z" fill="#1F2937"/>
<path d="M12.798 23.9212C11.718 23.9212 10.7114 23.7478 9.77802 23.4012C8.85802 23.0412 8.05802 22.5345 7.37802 21.8812C6.69802 21.2278 6.16469 20.4612 5.77802 19.5812C5.40469 18.7012 5.21802 17.7345 5.21802 16.6812C5.21802 15.6278 5.40469 14.6612 5.77802 13.7812C6.16469 12.9012 6.69802 12.1345 7.37802 11.4812C8.07135 10.8278 8.87802 10.3278 9.79802 9.98115C10.718 9.62115 11.7247 9.44115 12.818 9.44115C14.0314 9.44115 15.1247 9.65449 16.098 10.0812C17.0847 10.4945 17.9114 11.1078 18.578 11.9212L16.498 13.8412C16.018 13.2945 15.4847 12.8878 14.898 12.6212C14.3114 12.3412 13.6714 12.2012 12.978 12.2012C12.3247 12.2012 11.7247 12.3078 11.178 12.5212C10.6314 12.7345 10.158 13.0412 9.75802 13.4412C9.35802 13.8412 9.04469 14.3145 8.81802 14.8612C8.60469 15.4078 8.49802 16.0145 8.49802 16.6812C8.49802 17.3478 8.60469 17.9545 8.81802 18.5012C9.04469 19.0478 9.35802 19.5212 9.75802 19.9212C10.158 20.3212 10.6314 20.6278 11.178 20.8412C11.7247 21.0545 12.3247 21.1612 12.978 21.1612C13.6714 21.1612 14.3114 21.0278 14.898 20.7612C15.4847 20.4812 16.018 20.0612 16.498 19.5012L18.578 21.4212C17.9114 22.2345 17.0847 22.8545 16.098 23.2812C15.1247 23.7078 14.0247 23.9212 12.798 23.9212ZM25.5149 23.8412C24.2882 23.8412 23.2082 23.6012 22.2749 23.1212C21.3549 22.6412 20.6416 21.9878 20.1349 21.1612C19.6282 20.3212 19.3749 19.3678 19.3749 18.3012C19.3749 17.2212 19.6216 16.2678 20.1149 15.4412C20.6216 14.6012 21.3082 13.9478 22.1749 13.4812C23.0416 13.0012 24.0216 12.7612 25.1149 12.7612C26.1682 12.7612 27.1149 12.9878 27.9549 13.4412C28.8082 13.8812 29.4816 14.5212 29.9749 15.3612C30.4682 16.1878 30.7149 17.1812 30.7149 18.3412C30.7149 18.4612 30.7082 18.6012 30.6949 18.7612C30.6816 18.9078 30.6682 19.0478 30.6549 19.1812H21.9149V17.3612H29.0149L27.8149 17.9012C27.8149 17.3412 27.7016 16.8545 27.4749 16.4412C27.2482 16.0278 26.9349 15.7078 26.5349 15.4812C26.1349 15.2412 25.6682 15.1212 25.1349 15.1212C24.6016 15.1212 24.1282 15.2412 23.7149 15.4812C23.3149 15.7078 23.0016 16.0345 22.7749 16.4612C22.5482 16.8745 22.4349 17.3678 22.4349 17.9412V18.4212C22.4349 19.0078 22.5616 19.5278 22.8149 19.9812C23.0816 20.4212 23.4482 20.7612 23.9149 21.0012C24.3949 21.2278 24.9549 21.3412 25.5949 21.3412C26.1682 21.3412 26.6682 21.2545 27.0949 21.0812C27.5349 20.9078 27.9349 20.6478 28.2949 20.3012L29.9549 22.1012C29.4616 22.6612 28.8416 23.0945 28.0949 23.4012C27.3482 23.6945 26.4882 23.8412 25.5149 23.8412ZM39.3321 12.7612C40.1854 12.7612 40.9454 12.9345 41.6121 13.2812C42.2921 13.6145 42.8254 14.1345 43.2121 14.8412C43.5987 15.5345 43.7921 16.4278 43.7921 17.5212V23.6812H40.6721V18.0012C40.6721 17.1345 40.4787 16.4945 40.0921 16.0812C39.7187 15.6678 39.1854 15.4612 38.4921 15.4612C37.9987 15.4612 37.5521 15.5678 37.1521 15.7812C36.7654 15.9812 36.4587 16.2945 36.2321 16.7212C36.0187 17.1478 35.9121 17.6945 35.9121 18.3612V23.6812H32.7921V12.9212H35.7721V15.9012L35.2121 15.0012C35.5987 14.2812 36.1521 13.7278 36.8721 13.3412C37.5921 12.9545 38.4121 12.7612 39.3321 12.7612ZM51.0202 23.8412C49.7535 23.8412 48.7669 23.5212 48.0602 22.8812C47.3535 22.2278 47.0002 21.2612 47.0002 19.9812V10.5412H50.1202V19.9412C50.1202 20.3945 50.2402 20.7478 50.4802 21.0012C50.7202 21.2412 51.0469 21.3612 51.4602 21.3612C51.9535 21.3612 52.3735 21.2278 52.7202 20.9612L53.5602 23.1612C53.2402 23.3878 52.8535 23.5612 52.4002 23.6812C51.9602 23.7878 51.5002 23.8412 51.0202 23.8412ZM45.3402 15.5612V13.1612H52.8002V15.5612H45.3402ZM60.3196 23.8412C59.0929 23.8412 58.0129 23.6012 57.0796 23.1212C56.1596 22.6412 55.4462 21.9878 54.9396 21.1612C54.4329 20.3212 54.1796 19.3678 54.1796 18.3012C54.1796 17.2212 54.4262 16.2678 54.9196 15.4412C55.4262 14.6012 56.1129 13.9478 56.9796 13.4812C57.8462 13.0012 58.8262 12.7612 59.9196 12.7612C60.9729 12.7612 61.9196 12.9878 62.7596 13.4412C63.6129 13.8812 64.2862 14.5212 64.7796 15.3612C65.2729 16.1878 65.5196 17.1812 65.5196 18.3412C65.5196 18.4612 65.5129 18.6012 65.4996 18.7612C65.4862 18.9078 65.4729 19.0478 65.4596 19.1812H56.7196V17.3612H63.8196L62.6196 17.9012C62.6196 17.3412 62.5062 16.8545 62.2796 16.4412C62.0529 16.0278 61.7396 15.7078 61.3396 15.4812C60.9396 15.2412 60.4729 15.1212 59.9396 15.1212C59.4062 15.1212 58.9329 15.2412 58.5196 15.4812C58.1196 15.7078 57.8062 16.0345 57.5796 16.4612C57.3529 16.8745 57.2396 17.3678 57.2396 17.9412V18.4212C57.2396 19.0078 57.3662 19.5278 57.6196 19.9812C57.8862 20.4212 58.2529 20.7612 58.7196 21.0012C59.1996 21.2278 59.7596 21.3412 60.3996 21.3412C60.9729 21.3412 61.4729 21.2545 61.8996 21.0812C62.3396 20.9078 62.7396 20.6478 63.0996 20.3012L64.7596 22.1012C64.2662 22.6612 63.6462 23.0945 62.8996 23.4012C62.1529 23.6945 61.2929 23.8412 60.3196 23.8412ZM67.5968 23.6812V12.9212H70.5768V15.9612L70.1568 15.0812C70.4768 14.3212 70.9901 13.7478 71.6968 13.3612C72.4034 12.9612 73.2634 12.7612 74.2768 12.7612V15.6412C74.1434 15.6278 74.0234 15.6212 73.9168 15.6212C73.8101 15.6078 73.6968 15.6012 73.5768 15.6012C72.7234 15.6012 72.0301 15.8478 71.4968 16.3412C70.9768 16.8212 70.7168 17.5745 70.7168 18.6012V23.6812H67.5968Z" fill="#1F2937"/>
<path d="M97.82 24.06C96.82 24.06 95.8933 23.88 95.04 23.52C94.1867 23.16 93.44 22.66 92.8 22.02C92.16 21.3667 91.66 20.6133 91.3 19.76C90.9533 18.9067 90.78 17.9867 90.78 17C90.78 16.0133 90.96 15.0933 91.32 14.24C91.68 13.3867 92.18 12.64 92.82 12C93.46 11.3467 94.2067 10.84 95.06 10.48C95.9267 10.12 96.86 9.94 97.86 9.94C98.86 9.94 99.7867 10.12 100.64 10.48C101.507 10.8267 102.253 11.32 102.88 11.96C103.52 12.6 104.013 13.3467 104.36 14.2C104.72 15.04 104.9 15.96 104.9 16.96C104.9 17.96 104.72 18.8933 104.36 19.76C104 20.6133 103.493 21.3667 102.84 22.02C102.2 22.66 101.453 23.16 100.6 23.52C99.7467 23.88 98.82 24.06 97.82 24.06ZM97.82 22.76C98.6333 22.76 99.3867 22.6133 100.08 22.32C100.773 22.0133 101.38 21.6 101.9 21.08C102.42 20.56 102.82 19.9467 103.1 19.24C103.393 18.5333 103.54 17.7733 103.54 16.96C103.54 16.1467 103.393 15.3933 103.1 14.7C102.82 13.9933 102.427 13.3867 101.92 12.88C101.427 12.36 100.833 11.96 100.14 11.68C99.4467 11.3867 98.6867 11.24 97.86 11.24C97.0467 11.24 96.2867 11.3867 95.58 11.68C94.8867 11.9733 94.28 12.3867 93.76 12.92C93.2533 13.44 92.86 14.0467 92.58 14.74C92.3 15.4333 92.16 16.1867 92.16 17C92.16 17.8133 92.3 18.5733 92.58 19.28C92.86 19.9733 93.2533 20.58 93.76 21.1C94.2667 21.62 94.8667 22.0267 95.56 22.32C96.2533 22.6133 97.0067 22.76 97.82 22.76ZM98.08 21.04C97.2533 21.04 96.52 20.8733 95.88 20.54C95.24 20.1933 94.7333 19.7133 94.36 19.1C94 18.4867 93.82 17.7867 93.82 17C93.82 16.2133 94 15.5133 94.36 14.9C94.7333 14.2867 95.24 13.8133 95.88 13.48C96.52 13.1333 97.2533 12.96 98.08 12.96C98.88 12.96 99.58 13.1333 100.18 13.48C100.78 13.8133 101.22 14.2733 101.5 14.86L99.7 15.92C99.5 15.5867 99.26 15.3467 98.98 15.2C98.7133 15.0533 98.4067 14.98 98.06 14.98C97.7133 14.98 97.3933 15.06 97.1 15.22C96.82 15.38 96.5933 15.6133 96.42 15.92C96.2467 16.2267 96.16 16.5867 96.16 17C96.16 17.4133 96.2467 17.7733 96.42 18.08C96.5933 18.3867 96.82 18.62 97.1 18.78C97.3933 18.94 97.7133 19.02 98.06 19.02C98.4067 19.02 98.7133 18.9467 98.98 18.8C99.26 18.6533 99.5 18.4133 99.7 18.08L101.5 19.12C101.22 19.7067 100.78 20.1733 100.18 20.52C99.58 20.8667 98.88 21.04 98.08 21.04ZM112.027 24V21.9L117.427 16.8C117.854 16.4133 118.167 16.0667 118.367 15.76C118.567 15.4533 118.701 15.1733 118.767 14.92C118.847 14.6667 118.887 14.4333 118.887 14.22C118.887 13.66 118.694 13.2333 118.307 12.94C117.934 12.6333 117.381 12.48 116.647 12.48C116.061 12.48 115.514 12.5933 115.007 12.82C114.514 13.0467 114.094 13.4 113.747 13.88L111.387 12.36C111.921 11.56 112.667 10.9267 113.627 10.46C114.587 9.99333 115.694 9.76 116.947 9.76C117.987 9.76 118.894 9.93333 119.667 10.28C120.454 10.6133 121.061 11.0867 121.487 11.7C121.927 12.3133 122.147 13.0467 122.147 13.9C122.147 14.3533 122.087 14.8067 121.967 15.26C121.861 15.7 121.634 16.1667 121.287 16.66C120.954 17.1533 120.461 17.7067 119.807 18.32L115.327 22.54L114.707 21.36H122.607V24H112.027ZM129.944 24.24C128.797 24.24 127.771 23.96 126.864 23.4C125.957 22.8267 125.244 22 124.724 20.92C124.204 19.84 123.944 18.5333 123.944 17C123.944 15.4667 124.204 14.16 124.724 13.08C125.244 12 125.957 11.18 126.864 10.62C127.771 10.0467 128.797 9.76 129.944 9.76C131.104 9.76 132.131 10.0467 133.024 10.62C133.931 11.18 134.644 12 135.164 13.08C135.684 14.16 135.944 15.4667 135.944 17C135.944 18.5333 135.684 19.84 135.164 20.92C134.644 22 133.931 22.8267 133.024 23.4C132.131 23.96 131.104 24.24 129.944 24.24ZM129.944 21.5C130.491 21.5 130.964 21.3467 131.364 21.04C131.777 20.7333 132.097 20.2467 132.324 19.58C132.564 18.9133 132.684 18.0533 132.684 17C132.684 15.9467 132.564 15.0867 132.324 14.42C132.097 13.7533 131.777 13.2667 131.364 12.96C130.964 12.6533 130.491 12.5 129.944 12.5C129.411 12.5 128.937 12.6533 128.524 12.96C128.124 13.2667 127.804 13.7533 127.564 14.42C127.337 15.0867 127.224 15.9467 127.224 17C127.224 18.0533 127.337 18.9133 127.564 19.58C127.804 20.2467 128.124 20.7333 128.524 21.04C128.937 21.3467 129.411 21.5 129.944 21.5ZM137.32 24V21.9L142.72 16.8C143.147 16.4133 143.46 16.0667 143.66 15.76C143.86 15.4533 143.993 15.1733 144.06 14.92C144.14 14.6667 144.18 14.4333 144.18 14.22C144.18 13.66 143.987 13.2333 143.6 12.94C143.227 12.6333 142.673 12.48 141.94 12.48C141.353 12.48 140.807 12.5933 140.3 12.82C139.807 13.0467 139.387 13.4 139.04 13.88L136.68 12.36C137.213 11.56 137.96 10.9267 138.92 10.46C139.88 9.99333 140.987 9.76 142.24 9.76C143.28 9.76 144.187 9.93333 144.96 10.28C145.747 10.6133 146.353 11.0867 146.78 11.7C147.22 12.3133 147.44 13.0467 147.44 13.9C147.44 14.3533 147.38 14.8067 147.26 15.26C147.153 15.7 146.927 16.1667 146.58 16.66C146.247 17.1533 145.753 17.7067 145.1 18.32L140.62 22.54L140 21.36H147.9V24H137.32ZM148.862 21.06V18.88L155.462 10H158.862L152.402 18.88L150.822 18.42H161.842V21.06H148.862ZM156.402 24V21.06L156.502 18.42V15.8H159.562V24H156.402Z" fill="#1F2937"/>
</svg>
