<svg width="178" height="69" viewBox="0 0 178 69" fill="none" xmlns="http://www.w3.org/2000/svg">
<path d="M20.064 47.576C17.472 47.576 15.056 47.16 12.816 46.328C10.608 45.464 8.688 44.248 7.056 42.68C5.424 41.112 4.144 39.272 3.216 37.16C2.32 35.048 1.872 32.728 1.872 30.2C1.872 27.672 2.32 25.352 3.216 23.24C4.144 21.128 5.424 19.288 7.056 17.72C8.72 16.152 10.656 14.952 12.864 14.12C15.072 13.256 17.488 12.824 20.112 12.824C23.024 12.824 25.648 13.336 27.984 14.36C30.352 15.352 32.336 16.824 33.936 18.776L28.944 23.384C27.792 22.072 26.512 21.096 25.104 20.456C23.696 19.784 22.16 19.448 20.496 19.448C18.928 19.448 17.488 19.704 16.176 20.216C14.864 20.728 13.728 21.464 12.768 22.424C11.808 23.384 11.056 24.52 10.512 25.832C10 27.144 9.744 28.6 9.744 30.2C9.744 31.8 10 33.256 10.512 34.568C11.056 35.88 11.808 37.016 12.768 37.976C13.728 38.936 14.864 39.672 16.176 40.184C17.488 40.696 18.928 40.952 20.496 40.952C22.16 40.952 23.696 40.632 25.104 39.992C26.512 39.32 27.792 38.312 28.944 36.968L33.936 41.576C32.336 43.528 30.352 45.016 27.984 46.04C25.648 47.064 23.008 47.576 20.064 47.576Z" fill="#1F2937"/>
<path d="M29.064 57.576C26.472 57.576 24.056 57.16 21.816 56.328C19.608 55.464 17.688 54.248 16.056 52.68C14.424 51.112 13.144 49.272 12.216 47.16C11.32 45.048 10.872 42.728 10.872 40.2C10.872 37.672 11.32 35.352 12.216 33.24C13.144 31.128 14.424 29.288 16.056 27.72C17.72 26.152 19.656 24.952 21.864 24.12C24.072 23.256 26.488 22.824 29.112 22.824C32.024 22.824 34.648 23.336 36.984 24.36C39.352 25.352 41.336 26.824 42.936 28.776L37.944 33.384C36.792 32.072 35.512 31.096 34.104 30.456C32.696 29.784 31.16 29.448 29.496 29.448C27.928 29.448 26.488 29.704 25.176 30.216C23.864 30.728 22.728 31.464 21.768 32.424C20.808 33.384 20.056 34.52 19.512 35.832C19 37.144 18.744 38.6 18.744 40.2C18.744 41.8 19 43.256 19.512 44.568C20.056 45.88 20.808 47.016 21.768 47.976C22.728 48.936 23.864 49.672 25.176 50.184C26.488 50.696 27.928 50.952 29.496 50.952C31.16 50.952 32.696 50.632 34.104 49.992C35.512 49.32 36.792 48.312 37.944 46.968L42.936 51.576C41.336 53.528 39.352 55.016 36.984 56.04C34.648 57.064 32.008 57.576 29.064 57.576ZM59.5845 57.384C56.6405 57.384 54.0485 56.808 51.8085 55.656C49.6005 54.504 47.8885 52.936 46.6725 50.952C45.4565 48.936 44.8485 46.648 44.8485 44.088C44.8485 41.496 45.4405 39.208 46.6245 37.224C47.8405 35.208 49.4885 33.64 51.5685 32.52C53.6485 31.368 56.0005 30.792 58.6245 30.792C61.1525 30.792 63.4245 31.336 65.4405 32.424C67.4885 33.48 69.1045 35.016 70.2885 37.032C71.4725 39.016 72.0645 41.4 72.0645 44.184C72.0645 44.472 72.0485 44.808 72.0165 45.192C71.9845 45.544 71.9525 45.88 71.9205 46.2H50.9445V41.832H67.9845L65.1045 43.128C65.1045 41.784 64.8325 40.616 64.2885 39.624C63.7445 38.632 62.9925 37.864 62.0325 37.32C61.0725 36.744 59.9525 36.456 58.6725 36.456C57.3925 36.456 56.2565 36.744 55.2645 37.32C54.3045 37.864 53.5525 38.648 53.0085 39.672C52.4645 40.664 52.1925 41.848 52.1925 43.224V44.376C52.1925 45.784 52.4965 47.032 53.1045 48.12C53.7445 49.176 54.6245 49.992 55.7445 50.568C56.8965 51.112 58.2405 51.384 59.7765 51.384C61.1525 51.384 62.3525 51.176 63.3765 50.76C64.4325 50.344 65.3925 49.72 66.2565 48.888L70.2405 53.208C69.0565 54.552 67.5685 55.592 65.7765 56.328C63.9845 57.032 61.9205 57.384 59.5845 57.384ZM92.7458 30.792C94.7938 30.792 96.6178 31.208 98.2178 32.04C99.8498 32.84 101.13 34.088 102.058 35.784C102.986 37.448 103.45 39.592 103.45 42.216V57H95.9618V43.368C95.9618 41.288 95.4978 39.752 94.5698 38.76C93.6738 37.768 92.3938 37.272 90.7298 37.272C89.5458 37.272 88.4738 37.528 87.5138 38.04C86.5858 38.52 85.8498 39.272 85.3058 40.296C84.7938 41.32 84.5378 42.632 84.5378 44.232V57H77.0498V31.176H84.2018V38.328L82.8578 36.168C83.7858 34.44 85.1138 33.112 86.8418 32.184C88.5698 31.256 90.5378 30.792 92.7458 30.792ZM120.797 57.384C117.757 57.384 115.389 56.616 113.693 55.08C111.997 53.512 111.149 51.192 111.149 48.12V25.464H118.637V48.024C118.637 49.112 118.925 49.96 119.501 50.568C120.077 51.144 120.861 51.432 121.853 51.432C123.037 51.432 124.045 51.112 124.877 50.472L126.893 55.752C126.125 56.296 125.197 56.712 124.109 57C123.053 57.256 121.949 57.384 120.797 57.384ZM107.165 37.512V31.752H125.069V37.512H107.165ZM143.116 57.384C140.172 57.384 137.58 56.808 135.34 55.656C133.132 54.504 131.42 52.936 130.204 50.952C128.988 48.936 128.38 46.648 128.38 44.088C128.38 41.496 128.972 39.208 130.156 37.224C131.372 35.208 133.02 33.64 135.1 32.52C137.18 31.368 139.532 30.792 142.156 30.792C144.684 30.792 146.956 31.336 148.972 32.424C151.02 33.48 152.636 35.016 153.82 37.032C155.004 39.016 155.596 41.4 155.596 44.184C155.596 44.472 155.58 44.808 155.548 45.192C155.516 45.544 155.484 45.88 155.452 46.2H134.476V41.832H151.516L148.636 43.128C148.636 41.784 148.364 40.616 147.82 39.624C147.276 38.632 146.524 37.864 145.564 37.32C144.604 36.744 143.484 36.456 142.204 36.456C140.924 36.456 139.788 36.744 138.796 37.32C137.836 37.864 137.084 38.648 136.54 39.672C135.996 40.664 135.724 41.848 135.724 43.224V44.376C135.724 45.784 136.028 47.032 136.636 48.12C137.276 49.176 138.156 49.992 139.276 50.568C140.428 51.112 141.772 51.384 143.308 51.384C144.684 51.384 145.884 51.176 146.908 50.76C147.964 50.344 148.924 49.72 149.788 48.888L153.772 53.208C152.588 54.552 151.1 55.592 149.308 56.328C147.516 57.032 145.452 57.384 143.116 57.384ZM160.581 57V31.176H167.733V38.472L166.725 36.36C167.493 34.536 168.725 33.16 170.421 32.232C172.117 31.272 174.181 30.792 176.613 30.792V37.704C176.293 37.672 176.005 37.656 175.749 37.656C175.493 37.624 175.221 37.608 174.933 37.608C172.885 37.608 171.221 38.2 169.941 39.384C168.693 40.536 168.069 42.344 168.069 44.808V57H160.581Z" fill="#F59E0B"/>
</svg>
